<?xml version="1.0" standalone="no"?>
<!DOCTYPE svg PUBLIC "-//W3C//DTD SVG 20010904//EN"
 "http://www.w3.org/TR/2001/REC-SVG-20010904/DTD/svg10.dtd">
<svg version="1.0" xmlns="http://www.w3.org/2000/svg"
 width="500.000000pt" height="500.000000pt" viewBox="0 0 500.000000 500.000000"
 preserveAspectRatio="xMidYMid meet">

<g transform="translate(0.000000,500.000000) scale(0.100000,-0.100000)"
fill="#000000" stroke="none">
<path d="M2325 3091 c-132 -4 -226 -8 -209 -9 63 -4 93 -22 105 -60 15 -49 24
-735 11 -870 -6 -70 -14 -109 -25 -119 -8 -9 -39 -21 -69 -28 -49 -12 -35 -13
157 -13 195 0 205 1 147 12 -35 7 -70 19 -78 27 -27 28 -36 179 -32 568 3 273
8 385 17 409 21 52 59 67 181 67 92 0 111 -3 153 -25 164 -83 204 -309 79
-451 -49 -56 -111 -81 -213 -87 -143 -8 -107 -25 44 -20 149 5 194 19 265 82
59 53 86 123 86 221 0 97 -22 154 -86 217 -82 81 -132 89 -533 79z"/>
<path d="M2862 2068 c-28 -28 -2 -88 38 -88 19 0 50 35 50 57 0 34 -62 57 -88
31z"/>
</g>
</svg>
